<svg id="Capa_1" enable-background="new 0 0 512 512" height="512" viewBox="0 0 512 512" width="512" xmlns="http://www.w3.org/2000/svg" fill="white"><g><path d="m501.762 238.487-352.025-196.432c-13.311-7.43-29.732 2.236-29.732 17.512v80.214l-113.318 101.258c-8.911 7.962-8.92 21.95 0 29.921l113.319 101.258v80.214c0 15.262 16.407 24.948 29.732 17.512l352.025-196.433c13.576-7.563 13.723-27.378-.001-35.024zm-381.757 80.021-69.953-62.508 69.953-62.508zm40.003 99.821c0-17.766 0-127.113 0-142.286h254.989zm0-182.373c0-12.487 0-124.903 0-142.286l254.989 142.286z"/></g></svg>