<?xml version="1.0" encoding="UTF-8"?>
<svg width="86px" height="80px" viewBox="0 0 86 80" version="1.1" xmlns="http://www.w3.org/2000/svg" xmlns:xlink="http://www.w3.org/1999/xlink">
    <g id="Page-1" stroke="none" stroke-width="1" fill="none" fill-rule="evenodd">
        <path d="M84.2562319,37.3930012 C84.9564407,37.7041147 85.444677,38.405645 85.444677,39.2213285 C85.444677,40.0282068 84.9669248,40.7233831 84.2788336,41.0394444 L3.38847055,78.9868926 C2.65661503,79.3312536 1.79040922,79.1990246 1.19219689,78.6545524 C1.16886236,78.6326321 1.14623495,78.6114189 1.12502174,78.5902057 C0.579135308,78.0443192 0.393873331,77.2297322 0.656917053,76.4985838 L14.0756824,39.2319351 L0.663281015,3.00119788 C0.382559622,2.24388651 0.585499269,1.39182284 1.17734764,0.840986661 C1.76990313,0.290857585 2.63469472,0.151557549 3.36937867,0.48743327 L84.2562319,37.3930012 Z M74.2436415,37.2217273 L6.0839616,6.12236721 L17.5961299,37.222323 L74.2436415,37.2217273 Z M74.4732897,41.2211209 L17.6102881,41.2217188 L6.05355601,73.3180175 L74.4732897,41.2211209 Z" id="Shape" fill="#131313" fill-rule="nonzero"></path>
    </g>
</svg>